<svg xmlns="http://www.w3.org/2000/svg" xmlns:xlink="http://www.w3.org/1999/xlink" x="0" y="0" width="190.1666717529297" height="132.5" style="
        width:190.1666717529297px;
        height:132.5px;
        background: #FFF;
        fill: none;
">
        
        
        <svg xmlns="http://www.w3.org/2000/svg" class="role-diagram-draw-area"><g class="shapes-region" style="stroke: black; fill: none;"><g class="composite-shape"><path class="real" d=" M95.24,52.25 L180.91,52.25 L98.6,121.25 L12.93,121.25 Z" style="stroke-width: 1px; stroke: rgb(155, 155, 155); stroke-opacity: 1; fill: rgb(74, 144, 226); fill-opacity: 0.51;"/></g><g class="arrow-line"><path class="connection real" stroke-dasharray="" d="  M48.68,25.25 C81.07,-33.75 123.92,72.25 142.36,21.25" style="stroke: rgb(208, 2, 27); stroke-opacity: 1; stroke-width: 3px; fill: none; fill-opacity: 1;"/></g><g class="arrow-line"><path class="connection real" stroke-dasharray="" d="  M48.68,25.25 L49.18,108.25" style="stroke: rgb(155, 155, 155); stroke-opacity: 1; stroke-width: 1px; fill: none; fill-opacity: 1;"/><g><g stroke="none" fill="rgb(155,155,155)" fill-opacity="1" transform="matrix(-0.005934084629719439,-0.9999823931648033,0.9999823931648033,-0.005934084629719439,48.96364256336604,71.74990990088749)" style="stroke: none; fill: rgb(155, 155, 155); stroke-width: 1px;"><path d=" M8.93,-4.29 L0,0 L8.93,4.29 Z"/></g></g></g><g class="arrow-line"><path class="connection real" stroke-dasharray="" d="  M142.36,21.25 L142.86,62.25" style="stroke: rgb(155, 155, 155); stroke-opacity: 1; stroke-width: 1px; fill: none; fill-opacity: 1;"/><g><g stroke="none" fill="rgb(155,155,155)" fill-opacity="1" transform="matrix(-0.012217000835247481,-0.999925369660452,0.999925369660452,-0.012217000835247481,142.67119122507063,46.749630790712104)" style="stroke: none; fill: rgb(155, 155, 155); stroke-width: 1px;"><path d=" M8.93,-4.29 L0,0 L8.93,4.29 Z"/></g></g></g><g class="arrow-line"><path class="connection real" stroke-dasharray="" d="  M49.18,108.25 C80.57,130.25 113.96,54.25 142.86,62.25" style="stroke: rgb(12, 18, 245); stroke-opacity: 1; stroke-width: 3px; fill: none; fill-opacity: 1;"/></g><g class="arrow-line"><path class="connection real" stroke-dasharray="1.125 3.35" d="  M48.68,25.25 L43.2,38.25" style="stroke: rgb(208, 2, 27); stroke-opacity: 1; stroke-width: 1px; fill: none; fill-opacity: 1;"/></g><g class="arrow-line"><path class="connection real" stroke-dasharray="1.125 3.35" d="  M147.84,8.25 L142.36,21.25" style="stroke: rgb(208, 2, 27); stroke-opacity: 1; stroke-width: 1px; fill: none; fill-opacity: 1;"/></g><g class="arrow-line"><path class="connection real" stroke-dasharray="1.125 3.35" d="  M44.7,104.25 L49.18,108.25" style="stroke: rgb(11, 15, 243); stroke-opacity: 1; stroke-width: 1px; fill: none; fill-opacity: 1;"/></g><g class="arrow-line"><path class="connection real" stroke-dasharray="1.125 3.35" d="  M149.84,64.25 L142.86,62.25" style="stroke: rgb(11, 15, 243); stroke-opacity: 1; stroke-width: 1px; fill: none; fill-opacity: 1;"/></g><g class="arrow-line"><path class="connection real" stroke-dasharray="" d="  M66.62,8.25 L67.12,109.25" style="stroke: rgb(155, 155, 155); stroke-opacity: 1; stroke-width: 1px; fill: none; fill-opacity: 1;"/><g><g stroke="none" fill="rgb(155,155,155)" fill-opacity="1" transform="matrix(-0.00488690245402442,-0.9999880590209089,0.9999880590209089,-0.00488690245402442,66.89640457553287,63.7499391531974)" style="stroke: none; fill: rgb(155, 155, 155); stroke-width: 1px;"><path d=" M8.93,-4.29 L0,0 L8.93,4.29 Z"/></g></g></g><g class="arrow-line"><path class="connection real" stroke-dasharray="" d="  M85.56,11.25 L86.06,100.25" style="stroke: rgb(155, 155, 155); stroke-opacity: 1; stroke-width: 1px; fill: none; fill-opacity: 1;"/><g><g stroke="none" fill="rgb(155,155,155)" fill-opacity="1" transform="matrix(-0.005585024570828146,-0.9999844036286483,0.9999844036286483,-0.005585024570828146,85.8344034361222,60.74992163931677)" style="stroke: none; fill: rgb(155, 155, 155); stroke-width: 1px;"><path d=" M8.93,-4.29 L0,0 L8.93,4.29 Z"/></g></g></g><g class="arrow-line"><path class="connection real" stroke-dasharray="" d="  M104.99,23.25 L104.99,82.25" style="stroke: rgb(155, 155, 155); stroke-opacity: 1; stroke-width: 1px; fill: none; fill-opacity: 1;"/><g><g stroke="none" fill="rgb(155,155,155)" fill-opacity="1" transform="matrix(-1.8369701987210297e-16,-1,1,-1.8369701987210297e-16,104.99022406416907,57.749999999999986)" style="stroke: none; fill: rgb(155, 155, 155); stroke-width: 1px;"><path d=" M8.93,-4.29 L0,0 L8.93,4.29 Z"/></g></g></g><g class="arrow-line"><path class="connection real" stroke-dasharray="" d="  M124.42,35.25 L124.42,66.25" style="stroke: rgb(155, 155, 155); stroke-opacity: 1; stroke-width: 1px; fill: none; fill-opacity: 1;"/><g><g stroke="none" fill="rgb(155,155,155)" fill-opacity="1" transform="matrix(-1.8369701987210297e-16,-1,1,-1.8369701987210297e-16,124.42317799582804,55.749999999999986)" style="stroke: none; fill: rgb(155, 155, 155); stroke-width: 1px;"><path d=" M8.93,-4.29 L0,0 L8.93,4.29 Z"/></g></g></g><g/></g><g/><g/><g/></svg>
        <svg xmlns="http://www.w3.org/2000/svg" xmlns:xlink="http://www.w3.org/1999/xlink" width="189" height="131.3333282470703" style="width:189px;height:131.3333282470703px;font-family:Asana-Math, Asana;background:#FFF;"></svg>
</svg>
